<?xml version="1.0" encoding="utf-8" ?>
<!DOCTYPE svg PUBLIC "-//W3C//DTD SVG 1.1//EN" "http://www.w3.org/Graphics/SVG/1.1/DTD/svg11.dtd">
<svg height="615" version="1.1" width="1278" xmlns="http://www.w3.org/2000/svg">
<line fill="#000000" stroke="#000000" stroke-width="1" x1="141" x2="141" y1="63" y2="68"/>
<line fill="#000000" stroke="#000000" stroke-width="1" x1="141" x2="141" y1="73" y2="78"/>
<line fill="#000000" stroke="#000000" stroke-width="1" x1="141" x2="141" y1="83" y2="88"/>
<line fill="#000000" stroke="#000000" stroke-width="1" x1="141" x2="141" y1="93" y2="98"/>
<line fill="#000000" stroke="#000000" stroke-width="1" x1="141" x2="141" y1="103" y2="108"/>
<line fill="#000000" stroke="#000000" stroke-width="1" x1="141" x2="141" y1="113" y2="118"/>
<line fill="#000000" stroke="#000000" stroke-width="1" x1="141" x2="141" y1="123" y2="128"/>
<line fill="#000000" stroke="#000000" stroke-width="1" x1="141" x2="141" y1="133" y2="138"/>
<line fill="#000000" stroke="#000000" stroke-width="1" x1="141" x2="141" y1="143" y2="148"/>
<line fill="#000000" stroke="#000000" stroke-width="1" x1="141" x2="141" y1="153" y2="158"/>
<line fill="#000000" stroke="#000000" stroke-width="1" x1="141" x2="141" y1="163" y2="168"/>
<line fill="#000000" stroke="#000000" stroke-width="1" x1="141" x2="141" y1="173" y2="178"/>
<line fill="#000000" stroke="#000000" stroke-width="1" x1="141" x2="141" y1="183" y2="188"/>
<line fill="#000000" stroke="#000000" stroke-width="1" x1="141" x2="141" y1="193" y2="198"/>
<line fill="#000000" stroke="#000000" stroke-width="1" x1="141" x2="141" y1="203" y2="208"/>
<line fill="#000000" stroke="#000000" stroke-width="1" x1="141" x2="141" y1="213" y2="218"/>
<line fill="#000000" stroke="#000000" stroke-width="1" x1="141" x2="141" y1="223" y2="228"/>
<line fill="#000000" stroke="#000000" stroke-width="1" x1="141" x2="141" y1="233" y2="238"/>
<line fill="#000000" stroke="#000000" stroke-width="1" x1="141" x2="141" y1="243" y2="248"/>
<line fill="#000000" stroke="#000000" stroke-width="1" x1="141" x2="141" y1="253" y2="258"/>
<line fill="#000000" stroke="#000000" stroke-width="1" x1="141" x2="141" y1="263" y2="268"/>
<line fill="#000000" stroke="#000000" stroke-width="1" x1="141" x2="141" y1="273" y2="278"/>
<line fill="#000000" stroke="#000000" stroke-width="1" x1="141" x2="141" y1="283" y2="288"/>
<line fill="#000000" stroke="#000000" stroke-width="1" x1="141" x2="141" y1="293" y2="298"/>
<line fill="#000000" stroke="#000000" stroke-width="1" x1="141" x2="141" y1="303" y2="308"/>
<line fill="#000000" stroke="#000000" stroke-width="1" x1="141" x2="141" y1="313" y2="318"/>
<line fill="#000000" stroke="#000000" stroke-width="1" x1="141" x2="141" y1="323" y2="328"/>
<line fill="#000000" stroke="#000000" stroke-width="1" x1="141" x2="141" y1="333" y2="338"/>
<line fill="#000000" stroke="#000000" stroke-width="1" x1="141" x2="141" y1="343" y2="348"/>
<line fill="#000000" stroke="#000000" stroke-width="1" x1="141" x2="141" y1="353" y2="358"/>
<line fill="#000000" stroke="#000000" stroke-width="1" x1="141" x2="141" y1="363" y2="368"/>
<line fill="#000000" stroke="#000000" stroke-width="1" x1="141" x2="141" y1="373" y2="378"/>
<line fill="#000000" stroke="#000000" stroke-width="1" x1="141" x2="141" y1="383" y2="388"/>
<line fill="#000000" stroke="#000000" stroke-width="1" x1="141" x2="141" y1="393" y2="398"/>
<line fill="#000000" stroke="#000000" stroke-width="1" x1="141" x2="141" y1="403" y2="408"/>
<line fill="#000000" stroke="#000000" stroke-width="1" x1="141" x2="141" y1="413" y2="418"/>
<line fill="#000000" stroke="#000000" stroke-width="1" x1="141" x2="141" y1="423" y2="428"/>
<line fill="#000000" stroke="#000000" stroke-width="1" x1="141" x2="141" y1="433" y2="438"/>
<line fill="#000000" stroke="#000000" stroke-width="1" x1="141" x2="141" y1="443" y2="448"/>
<line fill="#000000" stroke="#000000" stroke-width="1" x1="141" x2="141" y1="453" y2="458"/>
<line fill="#000000" stroke="#000000" stroke-width="1" x1="141" x2="141" y1="463" y2="468"/>
<line fill="#000000" stroke="#000000" stroke-width="1" x1="141" x2="141" y1="473" y2="478"/>
<line fill="#000000" stroke="#000000" stroke-width="1" x1="141" x2="141" y1="483" y2="488"/>
<line fill="#000000" stroke="#000000" stroke-width="1" x1="141" x2="141" y1="493" y2="498"/>
<line fill="#000000" stroke="#000000" stroke-width="1" x1="141" x2="141" y1="503" y2="508"/>
<line fill="#000000" stroke="#000000" stroke-width="1" x1="141" x2="141" y1="513" y2="518"/>
<line fill="#000000" stroke="#000000" stroke-width="1" x1="141" x2="141" y1="523" y2="528"/>
<line fill="#000000" stroke="#000000" stroke-width="1" x1="141" x2="141" y1="533" y2="538"/>
<line fill="#000000" stroke="#000000" stroke-width="1" x1="141" x2="141" y1="543" y2="548"/>
<line fill="#000000" stroke="#000000" stroke-width="1" x1="141" x2="141" y1="553" y2="558"/>
<rect fill="#ffffff" height="496" stroke="#ffffff" stroke-width="1" width="20" x="131" y="63"/>
<rect fill="none" height="496" stroke="#000000" stroke-width="1" width="20" x="131" y="63"/>
<rect fill="#ffffff" height="50" stroke="#ffffff" stroke-width="1" width="150" x="66" y="14"/>
<rect fill="none" height="50" stroke="#000000" stroke-width="1" width="150" x="66" y="14"/>
<text font-family="Dialog" font-size="12" x="114" y="27">
/Browser</text>
<line fill="#000000" stroke="#000000" stroke-width="1" x1="699" x2="699" y1="63" y2="68"/>
<line fill="#000000" stroke="#000000" stroke-width="1" x1="699" x2="699" y1="73" y2="78"/>
<line fill="#000000" stroke="#000000" stroke-width="1" x1="699" x2="699" y1="83" y2="88"/>
<line fill="#000000" stroke="#000000" stroke-width="1" x1="699" x2="699" y1="93" y2="98"/>
<line fill="#000000" stroke="#000000" stroke-width="1" x1="699" x2="699" y1="103" y2="108"/>
<line fill="#000000" stroke="#000000" stroke-width="1" x1="699" x2="699" y1="113" y2="118"/>
<line fill="#000000" stroke="#000000" stroke-width="1" x1="699" x2="699" y1="123" y2="128"/>
<line fill="#000000" stroke="#000000" stroke-width="1" x1="699" x2="699" y1="133" y2="138"/>
<line fill="#000000" stroke="#000000" stroke-width="1" x1="699" x2="699" y1="143" y2="148"/>
<line fill="#000000" stroke="#000000" stroke-width="1" x1="699" x2="699" y1="153" y2="158"/>
<line fill="#000000" stroke="#000000" stroke-width="1" x1="699" x2="699" y1="163" y2="168"/>
<line fill="#000000" stroke="#000000" stroke-width="1" x1="699" x2="699" y1="173" y2="178"/>
<line fill="#000000" stroke="#000000" stroke-width="1" x1="699" x2="699" y1="183" y2="188"/>
<line fill="#000000" stroke="#000000" stroke-width="1" x1="699" x2="699" y1="193" y2="198"/>
<line fill="#000000" stroke="#000000" stroke-width="1" x1="699" x2="699" y1="203" y2="208"/>
<line fill="#000000" stroke="#000000" stroke-width="1" x1="699" x2="699" y1="213" y2="218"/>
<line fill="#000000" stroke="#000000" stroke-width="1" x1="699" x2="699" y1="223" y2="228"/>
<line fill="#000000" stroke="#000000" stroke-width="1" x1="699" x2="699" y1="233" y2="238"/>
<line fill="#000000" stroke="#000000" stroke-width="1" x1="699" x2="699" y1="243" y2="248"/>
<line fill="#000000" stroke="#000000" stroke-width="1" x1="699" x2="699" y1="253" y2="258"/>
<line fill="#000000" stroke="#000000" stroke-width="1" x1="699" x2="699" y1="263" y2="268"/>
<line fill="#000000" stroke="#000000" stroke-width="1" x1="699" x2="699" y1="273" y2="278"/>
<line fill="#000000" stroke="#000000" stroke-width="1" x1="699" x2="699" y1="283" y2="288"/>
<line fill="#000000" stroke="#000000" stroke-width="1" x1="699" x2="699" y1="293" y2="298"/>
<line fill="#000000" stroke="#000000" stroke-width="1" x1="699" x2="699" y1="303" y2="308"/>
<line fill="#000000" stroke="#000000" stroke-width="1" x1="699" x2="699" y1="313" y2="318"/>
<line fill="#000000" stroke="#000000" stroke-width="1" x1="699" x2="699" y1="323" y2="328"/>
<line fill="#000000" stroke="#000000" stroke-width="1" x1="699" x2="699" y1="333" y2="338"/>
<line fill="#000000" stroke="#000000" stroke-width="1" x1="699" x2="699" y1="343" y2="348"/>
<line fill="#000000" stroke="#000000" stroke-width="1" x1="699" x2="699" y1="353" y2="358"/>
<line fill="#000000" stroke="#000000" stroke-width="1" x1="699" x2="699" y1="363" y2="368"/>
<line fill="#000000" stroke="#000000" stroke-width="1" x1="699" x2="699" y1="373" y2="378"/>
<line fill="#000000" stroke="#000000" stroke-width="1" x1="699" x2="699" y1="383" y2="388"/>
<line fill="#000000" stroke="#000000" stroke-width="1" x1="699" x2="699" y1="393" y2="398"/>
<line fill="#000000" stroke="#000000" stroke-width="1" x1="699" x2="699" y1="403" y2="408"/>
<line fill="#000000" stroke="#000000" stroke-width="1" x1="699" x2="699" y1="413" y2="418"/>
<line fill="#000000" stroke="#000000" stroke-width="1" x1="699" x2="699" y1="423" y2="428"/>
<line fill="#000000" stroke="#000000" stroke-width="1" x1="699" x2="699" y1="433" y2="438"/>
<line fill="#000000" stroke="#000000" stroke-width="1" x1="699" x2="699" y1="443" y2="448"/>
<line fill="#000000" stroke="#000000" stroke-width="1" x1="699" x2="699" y1="453" y2="458"/>
<line fill="#000000" stroke="#000000" stroke-width="1" x1="699" x2="699" y1="463" y2="468"/>
<line fill="#000000" stroke="#000000" stroke-width="1" x1="699" x2="699" y1="473" y2="478"/>
<line fill="#000000" stroke="#000000" stroke-width="1" x1="699" x2="699" y1="483" y2="488"/>
<line fill="#000000" stroke="#000000" stroke-width="1" x1="699" x2="699" y1="493" y2="498"/>
<line fill="#000000" stroke="#000000" stroke-width="1" x1="699" x2="699" y1="503" y2="508"/>
<line fill="#000000" stroke="#000000" stroke-width="1" x1="699" x2="699" y1="513" y2="518"/>
<line fill="#000000" stroke="#000000" stroke-width="1" x1="699" x2="699" y1="523" y2="528"/>
<line fill="#000000" stroke="#000000" stroke-width="1" x1="699" x2="699" y1="533" y2="538"/>
<line fill="#000000" stroke="#000000" stroke-width="1" x1="699" x2="699" y1="543" y2="548"/>
<rect fill="#ffffff" height="94" stroke="#ffffff" stroke-width="1" width="20" x="689" y="262"/>
<rect fill="none" height="94" stroke="#000000" stroke-width="1" width="20" x="689" y="262"/>
<rect fill="#ffffff" height="50" stroke="#ffffff" stroke-width="1" width="210" x="594" y="14"/>
<rect fill="none" height="50" stroke="#000000" stroke-width="1" width="210" x="594" y="14"/>
<text font-family="Dialog" font-size="12" x="599" y="27">
/api.php#Extension:VisualEditor</text>
<line fill="#000000" stroke="#000000" stroke-width="1" x1="1189" x2="1189" y1="63" y2="68"/>
<line fill="#000000" stroke="#000000" stroke-width="1" x1="1189" x2="1189" y1="73" y2="78"/>
<line fill="#000000" stroke="#000000" stroke-width="1" x1="1189" x2="1189" y1="83" y2="88"/>
<line fill="#000000" stroke="#000000" stroke-width="1" x1="1189" x2="1189" y1="93" y2="98"/>
<line fill="#000000" stroke="#000000" stroke-width="1" x1="1189" x2="1189" y1="103" y2="108"/>
<line fill="#000000" stroke="#000000" stroke-width="1" x1="1189" x2="1189" y1="113" y2="118"/>
<line fill="#000000" stroke="#000000" stroke-width="1" x1="1189" x2="1189" y1="123" y2="128"/>
<line fill="#000000" stroke="#000000" stroke-width="1" x1="1189" x2="1189" y1="133" y2="138"/>
<line fill="#000000" stroke="#000000" stroke-width="1" x1="1189" x2="1189" y1="143" y2="148"/>
<line fill="#000000" stroke="#000000" stroke-width="1" x1="1189" x2="1189" y1="153" y2="158"/>
<line fill="#000000" stroke="#000000" stroke-width="1" x1="1189" x2="1189" y1="163" y2="168"/>
<line fill="#000000" stroke="#000000" stroke-width="1" x1="1189" x2="1189" y1="173" y2="178"/>
<line fill="#000000" stroke="#000000" stroke-width="1" x1="1189" x2="1189" y1="183" y2="188"/>
<line fill="#000000" stroke="#000000" stroke-width="1" x1="1189" x2="1189" y1="193" y2="198"/>
<line fill="#000000" stroke="#000000" stroke-width="1" x1="1189" x2="1189" y1="203" y2="208"/>
<line fill="#000000" stroke="#000000" stroke-width="1" x1="1189" x2="1189" y1="213" y2="218"/>
<line fill="#000000" stroke="#000000" stroke-width="1" x1="1189" x2="1189" y1="223" y2="228"/>
<line fill="#000000" stroke="#000000" stroke-width="1" x1="1189" x2="1189" y1="233" y2="238"/>
<line fill="#000000" stroke="#000000" stroke-width="1" x1="1189" x2="1189" y1="243" y2="248"/>
<line fill="#000000" stroke="#000000" stroke-width="1" x1="1189" x2="1189" y1="253" y2="258"/>
<line fill="#000000" stroke="#000000" stroke-width="1" x1="1189" x2="1189" y1="263" y2="268"/>
<line fill="#000000" stroke="#000000" stroke-width="1" x1="1189" x2="1189" y1="273" y2="278"/>
<line fill="#000000" stroke="#000000" stroke-width="1" x1="1189" x2="1189" y1="283" y2="288"/>
<line fill="#000000" stroke="#000000" stroke-width="1" x1="1189" x2="1189" y1="293" y2="298"/>
<line fill="#000000" stroke="#000000" stroke-width="1" x1="1189" x2="1189" y1="303" y2="308"/>
<line fill="#000000" stroke="#000000" stroke-width="1" x1="1189" x2="1189" y1="313" y2="318"/>
<line fill="#000000" stroke="#000000" stroke-width="1" x1="1189" x2="1189" y1="323" y2="328"/>
<line fill="#000000" stroke="#000000" stroke-width="1" x1="1189" x2="1189" y1="333" y2="338"/>
<line fill="#000000" stroke="#000000" stroke-width="1" x1="1189" x2="1189" y1="343" y2="348"/>
<line fill="#000000" stroke="#000000" stroke-width="1" x1="1189" x2="1189" y1="353" y2="358"/>
<line fill="#000000" stroke="#000000" stroke-width="1" x1="1189" x2="1189" y1="363" y2="368"/>
<line fill="#000000" stroke="#000000" stroke-width="1" x1="1189" x2="1189" y1="373" y2="378"/>
<line fill="#000000" stroke="#000000" stroke-width="1" x1="1189" x2="1189" y1="383" y2="388"/>
<line fill="#000000" stroke="#000000" stroke-width="1" x1="1189" x2="1189" y1="393" y2="398"/>
<line fill="#000000" stroke="#000000" stroke-width="1" x1="1189" x2="1189" y1="403" y2="408"/>
<line fill="#000000" stroke="#000000" stroke-width="1" x1="1189" x2="1189" y1="413" y2="418"/>
<line fill="#000000" stroke="#000000" stroke-width="1" x1="1189" x2="1189" y1="423" y2="428"/>
<line fill="#000000" stroke="#000000" stroke-width="1" x1="1189" x2="1189" y1="433" y2="438"/>
<line fill="#000000" stroke="#000000" stroke-width="1" x1="1189" x2="1189" y1="443" y2="448"/>
<line fill="#000000" stroke="#000000" stroke-width="1" x1="1189" x2="1189" y1="453" y2="458"/>
<line fill="#000000" stroke="#000000" stroke-width="1" x1="1189" x2="1189" y1="463" y2="468"/>
<line fill="#000000" stroke="#000000" stroke-width="1" x1="1189" x2="1189" y1="473" y2="478"/>
<line fill="#000000" stroke="#000000" stroke-width="1" x1="1189" x2="1189" y1="483" y2="488"/>
<line fill="#000000" stroke="#000000" stroke-width="1" x1="1189" x2="1189" y1="493" y2="498"/>
<line fill="#000000" stroke="#000000" stroke-width="1" x1="1189" x2="1189" y1="503" y2="508"/>
<line fill="#000000" stroke="#000000" stroke-width="1" x1="1189" x2="1189" y1="513" y2="518"/>
<line fill="#000000" stroke="#000000" stroke-width="1" x1="1189" x2="1189" y1="523" y2="528"/>
<line fill="#000000" stroke="#000000" stroke-width="1" x1="1189" x2="1189" y1="533" y2="538"/>
<line fill="#000000" stroke="#000000" stroke-width="1" x1="1189" x2="1189" y1="543" y2="548"/>
<line fill="#000000" stroke="#000000" stroke-width="1" x1="1189" x2="1189" y1="553" y2="556"/>
<rect fill="#ffffff" height="50" stroke="#ffffff" stroke-width="1" width="20" x="1179" y="286"/>
<rect fill="none" height="50" stroke="#000000" stroke-width="1" width="20" x="1179" y="286"/>
<rect fill="#ffffff" height="50" stroke="#ffffff" stroke-width="1" width="150" x="1114" y="14"/>
<rect fill="none" height="50" stroke="#000000" stroke-width="1" width="150" x="1114" y="14"/>
<text font-family="Dialog" font-size="12" x="1163" y="27">
/Parsoid</text>
<polyline fill="none" points="151,262 689,262" stroke="#000000" stroke-width="1"/>
<polygon fill="#000000" points="689,262 677,269 677,255" stroke="#000000" stroke-width="1"/>
<polygon fill="none" points="689,262 677,269 677,255" stroke="#000000" stroke-width="1"/>
<ellipse cx="420" cy="260" fill="#000000" rx="0.5" ry="0.5" stroke="#000000" stroke-width="1"/>
<ellipse cx="421" cy="261" fill="#ffffff" rx="-0.5" ry="-0.5" stroke="#ffffff" stroke-width="1"/>
<polyline fill="none" points="689,356 151,356" stroke="#000000" stroke-width="1"/>
<line fill="#000000" stroke="#000000" stroke-width="1" x1="163" x2="151" y1="349" y2="356"/>
<line fill="#000000" stroke="#000000" stroke-width="1" x1="163" x2="151" y1="363" y2="356"/>
<ellipse cx="420" cy="354" fill="#000000" rx="0.5" ry="0.5" stroke="#000000" stroke-width="1"/>
<ellipse cx="421" cy="355" fill="#ffffff" rx="-0.5" ry="-0.5" stroke="#ffffff" stroke-width="1"/>
<polyline fill="none" points="709,286 1179,286" stroke="#000000" stroke-width="1"/>
<polygon fill="#000000" points="1179,286 1167,293 1167,279" stroke="#000000" stroke-width="1"/>
<polygon fill="none" points="1179,286 1167,293 1167,279" stroke="#000000" stroke-width="1"/>
<ellipse cx="944" cy="284" fill="#000000" rx="0.5" ry="0.5" stroke="#000000" stroke-width="1"/>
<ellipse cx="945" cy="285" fill="#ffffff" rx="-0.5" ry="-0.5" stroke="#ffffff" stroke-width="1"/>
<polyline fill="none" points="1179,336 709,336" stroke="#000000" stroke-width="1"/>
<line fill="#000000" stroke="#000000" stroke-width="1" x1="721" x2="709" y1="329" y2="336"/>
<line fill="#000000" stroke="#000000" stroke-width="1" x1="721" x2="709" y1="343" y2="336"/>
<text font-family="Dialog" font-size="12" x="852" y="331">
html decorated with data-parsoid</text>
<polygon fill="#ffffff" points="250,94 508,94 518,104 518,204 250,204 250,94" stroke="#ffffff" stroke-width="1"/>
<polyline fill="none" points="250,94 508,94 518,104 518,204 250,204 250,94" stroke="#000000" stroke-width="1"/>
<polygon fill="#b2b2b2" points="508,94 518,104 508,104 508,94" stroke="#b2b2b2" stroke-width="1"/>
<polyline fill="none" points="508,94 518,104 508,104 508,94" stroke="#000000" stroke-width="1"/>
<text font-family="Dialog" font-size="12" x="253" y="109">
GET https://www.mediawiki.org/w/api.php</text>
<text font-family="Dialog" font-size="12" x="253" y="124">
Query parameters:</text>
<text font-family="Dialog" font-size="12" x="253" y="139">
* format=json</text>
<text font-family="Dialog" font-size="12" x="253" y="154">
* uselang=en</text>
<text font-family="Dialog" font-size="12" x="253" y="169">
* action=visualeditor</text>
<text font-family="Dialog" font-size="12" x="253" y="184">
* paction=parse</text>
<text font-family="Dialog" font-size="12" x="253" y="199">
* page=VisualEditor%3ATest</text>
<line fill="#000000" stroke="#000000" stroke-width="1" x1="420" x2="420" y1="205" y2="210"/>
<line fill="#000000" stroke="#000000" stroke-width="1" x1="420" x2="420" y1="215" y2="220"/>
<line fill="#000000" stroke="#000000" stroke-width="1" x1="420" x2="420" y1="225" y2="230"/>
<line fill="#000000" stroke="#000000" stroke-width="1" x1="420" x2="420" y1="235" y2="240"/>
<line fill="#000000" stroke="#000000" stroke-width="1" x1="420" x2="420" y1="245" y2="250"/>
<line fill="#000000" stroke="#000000" stroke-width="1" x1="420" x2="420" y1="255" y2="260"/>
<polygon fill="#ffffff" points="14,26 82,26 92,36 92,84 14,84 14,26" stroke="#ffffff" stroke-width="1"/>
<polyline fill="none" points="14,26 82,26 92,36 92,84 14,84 14,26" stroke="#000000" stroke-width="1"/>
<polygon fill="#b2b2b2" points="82,26 92,36 82,36 82,26" stroke="#b2b2b2" stroke-width="1"/>
<polyline fill="none" points="82,26 92,36 82,36 82,26" stroke="#000000" stroke-width="1"/>
<polygon fill="#ffffff" points="282,430 439,430 449,440 449,600 282,600 282,430" stroke="#ffffff" stroke-width="1"/>
<polyline fill="none" points="282,430 439,430 449,440 449,600 282,600 282,430" stroke="#000000" stroke-width="1"/>
<polygon fill="#b2b2b2" points="439,430 449,440 439,440 439,430" stroke="#b2b2b2" stroke-width="1"/>
<polyline fill="none" points="439,430 449,440 439,440 439,430" stroke="#000000" stroke-width="1"/>
<text font-family="Dialog" font-size="12" x="285" y="445">
visualeditor: {</text>
<text font-family="Dialog" font-size="12" x="285" y="460">
  result: "...",</text>
<text font-family="Dialog" font-size="12" x="285" y="475">
  notices: [...],</text>
<text font-family="Dialog" font-size="12" x="285" y="490">
  checkboxes: {...},</text>
<text font-family="Dialog" font-size="12" x="285" y="505">
  links: {...},</text>
<text font-family="Dialog" font-size="12" x="285" y="520">
  protectedClasses: "...",</text>
<text font-family="Dialog" font-size="12" x="285" y="535">
  content: "...",</text>
<text font-family="Dialog" font-size="12" x="285" y="550">
  basetimestamp: "...",</text>
<text font-family="Dialog" font-size="12" x="285" y="565">
  starttimestamp: "...",</text>
<text font-family="Dialog" font-size="12" x="285" y="580">
  oldid: ...</text>
<text font-family="Dialog" font-size="12" x="285" y="595">
}</text>
<line fill="#000000" stroke="#000000" stroke-width="1" x1="420" x2="420" y1="430" y2="425"/>
<line fill="#000000" stroke="#000000" stroke-width="1" x1="420" x2="420" y1="420" y2="415"/>
<line fill="#000000" stroke="#000000" stroke-width="1" x1="420" x2="420" y1="410" y2="405"/>
<line fill="#000000" stroke="#000000" stroke-width="1" x1="420" x2="420" y1="400" y2="395"/>
<line fill="#000000" stroke="#000000" stroke-width="1" x1="420" x2="420" y1="390" y2="385"/>
<line fill="#000000" stroke="#000000" stroke-width="1" x1="420" x2="420" y1="380" y2="375"/>
<line fill="#000000" stroke="#000000" stroke-width="1" x1="420" x2="420" y1="370" y2="365"/>
<line fill="#000000" stroke="#000000" stroke-width="1" x1="420" x2="420" y1="360" y2="355"/>
<polygon fill="#ffffff" points="866,182 1039,182 1049,192 1049,240 866,240 866,182" stroke="#ffffff" stroke-width="1"/>
<polyline fill="none" points="866,182 1039,182 1049,192 1049,240 866,240 866,182" stroke="#000000" stroke-width="1"/>
<polygon fill="#b2b2b2" points="1039,182 1049,192 1039,192 1039,182" stroke="#b2b2b2" stroke-width="1"/>
<polyline fill="none" points="1039,182 1049,192 1039,192 1039,182" stroke="#000000" stroke-width="1"/>
<text font-family="Dialog" font-size="12" x="869" y="197">
 /{wiki}/{page}?oldid=123</text>
<line fill="#000000" stroke="#000000" stroke-width="1" x1="944" x2="944" y1="241" y2="246"/>
<line fill="#000000" stroke="#000000" stroke-width="1" x1="944" x2="944" y1="251" y2="256"/>
<line fill="#000000" stroke="#000000" stroke-width="1" x1="944" x2="944" y1="261" y2="266"/>
<line fill="#000000" stroke="#000000" stroke-width="1" x1="944" x2="944" y1="271" y2="276"/>
<line fill="#000000" stroke="#000000" stroke-width="1" x1="944" x2="944" y1="281" y2="284"/>
</svg>
